# xmcd CD database file
#
# Track frame offsets:
#	150
#	11792
#	33851
#	50111
#	73496
#	80620
#	96282
#	116856
#	144698
#	150776
#	171699
#	193165
#	204537
#
# Disc length: 2951 seconds
#
# Revision: 0
# Processed by: cddbd v1.5.1PL0 Copyright (c) Steve Scherf et al.
# Submitted via: CDex 1.40Release
#
DISCID=c50b850d
DTITLE=hope sandoval and the warm inventions - bavarian fruit bread - at the doorway again
DYEAR=1900
DGENRE=Blues
TTITLE0=Drop
TTITLE1=Suzanne
TTITLE2=Butterfly Mornings
TTITLE3=On The Low
TTITLE4=Baby Let Me
TTITLE5=Feeling Of Gaze
TTITLE6=Charlotte
TTITLE7=Clear Day
TTITLE8=Bavarian Fruit Bread
TTITLE9=Around My Smile
TTITLE10=Lose Me On The Way
TTITLE11=Sparkly
TTITLE12=Down the steps
EXTD=ID3G: 0
EXTT0=
EXTT1=
EXTT2=
EXTT3=
EXTT4=
EXTT5=
EXTT6=
EXTT7=
EXTT8=
EXTT9=
EXTT10=
EXTT11=
EXTT12=
PLAYORDER=
